<?xml version="1.0" encoding="utf-8"?>
<!-- Generator: Adobe Illustrator 22.1.0, SVG Export Plug-In . SVG Version: 6.00 Build 0)  -->
<svg version="1.1" id="Layer_1" xmlns="http://www.w3.org/2000/svg" xmlns:xlink="http://www.w3.org/1999/xlink" x="0px" y="0px"
	 viewBox="0 0 963.3 224.3" style="enable-background:new 0 0 963.3 224.3;" xml:space="preserve">
<style type="text/css">
	.st0{fill:#4B4B5A;}
	.st1{fill:#3BCDE2;}
	.st2{fill:#3497FD;}
</style>
<g>
	<path class="st0" d="M116.8,188.5H72.6c-0.1,0-0.2,0-0.3,0v7.7c0.1,0,0.2,0,0.3,0h44.2C116.8,196.2,116.8,188.5,116.8,188.5z"/>
	<rect x="220" class="st1" width="86.2" height="13.2"/>
	<rect x="-0.1" y="35.7" class="st1" width="71.2" height="7"/>
	<path class="st1" d="M79.1,132.8H19.7c-0.2,0-0.4,0-0.6,0V146c0.2,0,0.4,0,0.6,0h59.4V132.8z"/>
	<rect x="250.5" y="83.8" class="st1" width="33.3" height="7"/>
	<path class="st0" d="M267.9,35.7h-41.5c-2.9-4.2-6.2-8.2-9.9-11.8C201.7,9.3,182.2,1,161.3,0.1C160.9,0,160.4,0,159.9,0H70.1v13.2
		h42.1c-4.7,3.1-9.2,6.6-13.3,10.6C83.3,39.2,74.7,59.7,74.7,81.6c0,0.7,0,1.5,0.1,2.2H29v7h46.3c2.2,19.6,11.3,37.7,28.3,56.4
		l25.6,29.5l11.8-12.3V84c0-9.2,7.5-16.7,16.7-16.7s16.5,7.2,16.7,16.7v1.5v31.2c12.1-5.3,20.4-15.6,20.4-32.6
		c0-20.5-16.7-37.1-37.1-37.1c-20.5,0-37.1,16.7-37.1,37.1v55c-19.9-23.9-25.4-39.5-25.4-57.4c0-33.7,28.1-61.2,62.6-61.2
		s62.6,27.5,62.6,61.2c0,18.1-7.3,34.1-23.6,52l-56.5,55.8l13.5,15.6l58.2-57.7c0.4-0.4,0.7-0.8,1.1-1.2H245l0,0V133l0,0h-21.3
		c11.7-16.6,17.2-33.2,17.2-51.2c0-13.8-3.4-27.1-9.9-38.9h36.9V35.7z"/>
	<path class="st2" d="M150.1,100.8v20.4c6.8,0,13.3-0.8,19.3-2.7V96.3C164.6,100.2,157.1,100.8,150.1,100.8z"/>
	<polygon class="st2" points="120,209.2 134,224.3 148.6,209.9 135.1,194.3 	"/>
	<g>
		<path class="st2" d="M677.8,154.7l-0.4,2.5c-0.4,2.1-1.2,4.2-2.5,6.2c-1.1,1.1-2.7,1.7-4.8,2h-1.4H668c-2.7,0-5.9-0.3-9.5-0.9
			c-3.6-0.6-7.2-1.4-10.8-2.3l-6.4-2.1l-1.8-0.7l-2-0.7l-3.6,1.6c-9.4,4.5-17.3,7.8-23.7,9.9c-6.4,2.1-12.1,3.1-16.9,3.1
			c-4.5,0-8.6-0.7-12.2-2.2c-3.6-1.5-5.4-3.3-5.4-5.4c0-1.4,0.6-3.1,1.9-5.2c1.2-2,2.7-3.8,4.5-5.4c1.7-1.6,5.5-4.8,11.3-9.7
			l12.3-10.5l-2.7-3.2c-4.6-7-7-14.9-7-23.7c0-3.7,0.8-9.9,2.5-18.8c1.7-8.8,7.9-19.5,18.8-31.8c10.9-12.4,24.1-18.5,39.6-18.5
			c13.3,0,20,4.9,20,14.6c0,2.7-0.5,5.9-1.5,9.6s-3.5,9.4-7.4,17.2s-9.9,16-18,24.8c-8.1,8.7-16.3,16.8-24.8,24.3l-3.6,3.2l-3.2,2.7
			c4.6,4.5,10.2,8.1,16.6,10.7c2.5-1.7,5-3.4,7.6-5.3c2.6-1.9,5.3-4,8.3-6.4l5.3-4.1l0.9-3.4l2.8-1.6l2.7-1.4l2.9-1.6l2.8-1.1
			l6.4,0.2l1.6,1.2c0.2,1.9,0.4,3.2,0.4,3.9c0,0.7-0.1,1.4-0.2,2.1c-0.1,0.7-0.2,1.2-0.2,1.6l-0.4,2.5l-6.8,5.2
			c-5.6,4.4-11.5,8.6-17.8,12.7c2.4,0.6,4.6,1,6.7,1.1s4.8,0.2,8.1,0.2l10.2,1.6L677.8,154.7z M625.3,152.5l-4.6-3
			c-2.1-1.7-3.9-3.1-5.2-4.2c-1.3-1.1-2.7-2.6-4.1-4.4l-5.3,4.7l-5.5,4.5L587,161.3l1.2,1.8c2.1,0,3.8,0,5,0c4.3,0,8.5-0.6,12.7-1.8
			c4.2-1.2,9-3.3,14.4-6.2l3.4-1.8L625.3,152.5z M661.2,56.3c0-2.9-0.6-4.8-1.7-6c-1.1-1.1-3.4-1.7-6.9-1.7c-1.8,0-3.9,0.1-6.3,0.4
			c-2.4,0.2-5.8,1.4-10.1,3.5c-4.3,2.1-8.1,4.7-11.5,7.8s-6.2,6.3-8.6,9.5c-2.3,3.3-4.8,8.1-7.6,14.5c-2.7,6.4-4.1,13.3-4.1,20.7
			c0,7.2,1.8,13.8,5.5,19.8l2.7,3.7l3.7-3.7l3.7-3.9l5.3-6.1c6.1-6.8,10.8-12.3,14.3-16.6c3.4-4.3,6.8-9,10-14.3
			c3.2-5.2,5.7-9.8,7.6-13.7c1.8-3.9,3-7.3,3.5-10.2l0.2-0.9L661.2,56.3z"/>
	</g>
	<g>
		<path class="st0" d="M341.9,63.4h14.8v9.5h0.7c2.1-3.3,5.1-6.1,9.2-8.3c4-2.3,8.6-3.4,13.7-3.4c6.5,0,12.4,1.6,17.7,4.9
			c5.3,3.3,9.4,7.8,12.5,13.6c3.1,5.8,4.6,12.4,4.6,19.7c0,7.3-1.5,13.9-4.6,19.7c-3.1,5.8-7.2,10.3-12.5,13.6s-11.2,4.9-17.7,4.9
			c-5.1,0-9.7-1.1-13.7-3.4c-4.1-2.3-7.1-5-9.2-8.2h-0.7l0.7,10v29.8h-15.5V63.4z M388.6,120.5c3.3-2,5.9-4.8,7.9-8.5s3-7.9,3-12.6
			s-1-8.9-3-12.5s-4.6-6.4-7.9-8.4s-6.8-3-10.6-3c-3.8,0-7.3,1-10.5,3s-5.9,4.8-7.8,8.4c-2,3.6-3,7.8-3,12.5s1,8.9,3,12.6
			s4.6,6.5,7.8,8.5c3.2,2,6.8,3,10.5,3C381.8,123.4,385.3,122.4,388.6,120.5z"/>
		<path class="st0" d="M422.9,49.9c-2-2-3-4.5-3-7.4s1-5.4,3-7.4s4.5-3,7.4-3s5.4,1,7.4,3s3,4.5,3,7.4s-1,5.4-3,7.4s-4.5,3-7.4,3
			S424.9,51.9,422.9,49.9z M422.5,63.4H438v72h-15.5V63.4z"/>
		<path class="st0" d="M463.7,132.7c-5.7-3.3-10.1-7.8-13.3-13.6c-3.2-5.8-4.7-12.4-4.7-19.7s1.6-13.9,4.7-19.7
			c3.2-5.8,7.6-10.3,13.3-13.6c5.7-3.3,12.1-4.9,19.3-4.9c7.9,0,14.6,1.8,20.2,5.4c5.6,3.6,9.5,8.4,11.9,14.5L500.8,87
			c-3.2-7.6-9.3-11.4-18.2-11.4c-3.9,0-7.4,1-10.7,3c-3.2,2-5.8,4.8-7.8,8.4c-1.9,3.6-2.9,7.8-2.9,12.5s1,8.9,2.9,12.6
			s4.5,6.5,7.8,8.5s6.8,3,10.7,3c4.5,0,8.4-1,11.7-3c3.2-2,5.7-4.9,7.4-8.7l14,6.1c-2.7,6.1-6.9,11-12.4,14.5
			c-5.6,3.6-12.3,5.4-20.2,5.4C475.8,137.7,469.4,136,463.7,132.7z"/>
		<path class="st0" d="M521.8,34.3h15.5v58.9h0.4l29.5-29.8h19.5v0.8l-28,27.8l28.8,42.5v0.8h-18.5l-21.2-32.6L537.3,113v22.3h-15.5
			L521.8,34.3L521.8,34.3z"/>
	</g>
	<g>
		<path class="st0" d="M699.8,132.7c-5.3-3.3-9.4-7.8-12.5-13.6c-3.1-5.8-4.6-12.4-4.6-19.7s1.5-13.9,4.6-19.7
			c3.1-5.8,7.2-10.3,12.5-13.6c5.3-3.3,11.2-4.9,17.7-4.9c5.1,0,9.7,1.1,13.7,3.4s7.1,5,9.2,8.3h0.7l-0.7-10.2V34.3h15.5v101.1
			h-14.8v-9.3h-0.7c-2.1,3.2-5.1,5.9-9.2,8.2s-8.6,3.4-13.7,3.4C711,137.7,705.2,136,699.8,132.7z M730.3,120.5
			c3.2-2,5.9-4.8,7.8-8.5c2-3.7,3-7.9,3-12.6s-1-8.9-3-12.5s-4.6-6.4-7.8-8.4c-3.2-2-6.8-3-10.5-3c-3.8,0-7.3,1-10.6,3
			c-3.3,2-5.9,4.8-7.9,8.4s-3,7.8-3,12.5s1,8.9,3,12.6s4.6,6.5,7.9,8.5c3.3,2,6.8,3,10.6,3C723.5,123.4,727,122.4,730.3,120.5z"/>
		<path class="st0" d="M766.9,63.4h14.8V74h0.7c1.6-3.7,4.4-6.7,8.3-9.1c4-2.4,8.1-3.6,12.6-3.6c3.5,0,6.4,0.5,8.8,1.4v16.1
			c-4.1-1.5-7.9-2.3-11.2-2.3c-3.6,0-6.8,0.9-9.5,2.8c-2.8,1.9-5,4.4-6.6,7.6s-2.4,6.6-2.4,10.4v38.1h-15.5V63.4z"/>
		<path class="st0" d="M826.9,132.7c-5.7-3.3-10.2-7.9-13.4-13.8c-3.2-5.8-4.8-12.3-4.8-19.5s1.6-13.7,4.8-19.5
			c3.2-5.8,7.7-10.4,13.4-13.8c5.7-3.3,12.2-5,19.5-5c7.3,0,13.7,1.7,19.5,5.1c5.7,3.4,10.2,8,13.4,13.8c3.2,5.8,4.8,12.3,4.8,19.4
			c0,7.2-1.6,13.7-4.8,19.5c-3.2,5.8-7.7,10.4-13.4,13.8c-5.7,3.3-12.2,5-19.5,5C839.3,137.7,832.8,136,826.9,132.7z M857.4,120.5
			c3.4-1.9,6.1-4.7,8.1-8.3c2-3.6,3-7.9,3-12.8s-1-9.1-3-12.7s-4.7-6.3-8.1-8.3c-3.4-1.9-7.1-2.9-11-2.9s-7.6,1-11,2.9
			s-6.1,4.7-8.1,8.3c-2,3.6-3,7.8-3,12.7c0,4.9,1,9.2,3,12.8c2,3.6,4.7,6.4,8.1,8.3c3.4,1.9,7.1,2.9,11,2.9S854,122.5,857.4,120.5z"
			/>
		<path class="st0" d="M890.2,63.4h14.8v9.5h0.7c2.1-3.3,5.1-6.1,9.2-8.3c4-2.3,8.6-3.4,13.7-3.4c6.5,0,12.4,1.6,17.7,4.9
			c5.3,3.3,9.4,7.8,12.5,13.6c3.1,5.8,4.6,12.4,4.6,19.7s-1.5,13.9-4.6,19.7c-3.1,5.8-7.2,10.3-12.5,13.6
			c-5.3,3.3-11.2,4.9-17.7,4.9c-5.1,0-9.7-1.1-13.7-3.4c-4-2.3-7.1-5-9.2-8.2h-0.7l0.7,10v29.8h-15.5V63.4z M936.8,120.5
			c3.3-2,5.9-4.8,7.9-8.5s3-7.9,3-12.6s-1-8.9-3-12.5s-4.6-6.4-7.9-8.4c-3.3-2-6.8-3-10.6-3c-3.8,0-7.3,1-10.5,3
			c-3.2,2-5.9,4.8-7.8,8.4c-2,3.6-3,7.8-3,12.5s1,8.9,3,12.6s4.6,6.5,7.8,8.5c3.2,2,6.8,3,10.5,3C930,123.4,933.5,122.4,936.8,120.5
			z"/>
	</g>
</g>
</svg>
